Coordinates
nRows=112
nColumns=2
inDegrees=yes
endheader
time	ankle_angle_r	
2.79133	 -0.353979	
2.8629	 -0.369446	
2.93448	 -0.332251	
3.00605	 -0.393078	
3.07762	 -0.373752	
3.14919	 -0.404862	
3.22077	 -0.331419	
3.29234	 -0.357246	
3.36391	 -0.396729	
3.43548	 -0.335693	
3.50706	 -0.401774	
3.57863	 -0.355581	
3.6502	 -0.436982	
3.72177	 -0.383403	
3.79335	 -0.345013	
3.86492	 -0.427246	
3.93649	 -0.411987	
4.00806	 -0.411987	
4.07964	 -0.381470	
4.15121	 -0.427246	
4.22278	 -0.442505	
4.29435	 -0.366211	
4.36593	 -0.404384	
4.4375	 -0.404540	
4.50907	 -0.434486	
4.58065	 -0.357984	
4.65222	 -0.403552	
4.72379	 -0.396729	
4.79536	 -0.342101	
4.86694	 -0.362871	
4.93851	 -0.326426	
5.01008	 -0.396729	
5.08165	 -0.395261	
5.15323	 -0.366211	
5.2248	 -0.412207	
5.29637	 -0.411987	
5.36794	 -0.396729	
5.43952	 -0.375282	
5.51109	 -0.416315	
5.58266	 -0.431365	
5.65423	 -0.373647	
5.72581	 -0.373618	
5.79738	 -0.316939	
5.86895	 -0.350952	
5.94052	 -0.305176	
6.0121	 -0.323306	
6.08367	 -0.341020	
6.15524	 -0.320435	
6.22681	 -0.350952	
6.29839	 -0.305176	
6.36996	 -0.368042	
6.44153	 -0.349329	
6.5131	 -0.332863	
6.58468	 -0.350952	
6.65625	 -0.394730	
6.72782	 -0.366211	
6.7994	 -0.335110	
6.87097	 -0.336443	
6.94254	 -0.396562	
7.01411	 -0.335734	
7.08569	 -0.335693	
7.15726	 -0.380556	
7.22883	 -0.411322	
7.3004	 -0.352698	
7.37198	 -0.352033	
7.44355	 -0.425957	
7.51512	 -0.411987	
7.58669	 -0.384880	
7.65827	 -0.381470	
7.72984	 -0.444626	
7.80141	 -0.416646	
7.87298	 -0.368748	
7.94456	 -0.409242	
8.01613	 -0.396729	
8.0877	 -0.442505	
8.15927	 -0.357691	
8.23085	 -0.366211	
8.30242	 -0.442505	
8.37399	 -0.377476	
8.44556	 -0.385671	
8.51714	 -0.340103	
8.58871	 -0.418011	
8.66028	 -0.360603	
8.73185	 -0.376436	
8.80343	 -0.366211	
8.875	 -0.370571	
8.94657	 -0.396729	
9.01815	 -0.372077	
9.08972	 -0.436431	
9.16129	 -0.451482	
9.23286	 -0.372701	
9.30444	 -0.396729	
9.37601	 -0.405082	
9.44758	 -0.442505	
9.51915	 -0.358274	
9.59073	 -0.373741	
9.6623	 -0.434767	
9.73387	 -0.366211	
9.80544	 -0.411987	
9.87702	 -0.350952	
9.94859	 -0.386278	
10.0202	 -0.396729	
10.0917	 -0.311449	
10.1633	 -0.378341	
10.2349	 -0.423701	
10.3065	 -0.415949	
10.378	 -0.381470	
10.4496	 -0.391935	
10.5212	 -0.447714	
10.5927	 -0.407171	
10.6643	 -0.366211	
10.7359	 -0.381470	
